<svg width="38" height="38" viewBox="0 0 38 38" fill="none" xmlns="http://www.w3.org/2000/svg">
<rect x="0.846811" y="0.638359" width="30.5027" height="30.5" rx="7.25" transform="matrix(0.990268 -0.139173 0.138814 0.990318 0.860088 5.50489)" stroke="white" stroke-width="1.5"/>
<ellipse cx="2.6656" cy="2.66667" rx="2.6656" ry="2.66667" transform="matrix(0.990268 -0.139173 0.138814 0.990318 6.99176 9.90734)" fill="white"/>
<ellipse cx="2.6656" cy="2.66667" rx="2.6656" ry="2.66667" transform="matrix(0.990268 -0.139173 0.138814 0.990318 14.9053 8.79956)" fill="white"/>
<ellipse cx="2.6656" cy="2.66667" rx="2.6656" ry="2.66667" transform="matrix(0.990268 -0.139173 0.138814 0.990318 22.8189 7.69177)" fill="white"/>
<ellipse cx="2.6656" cy="2.66667" rx="2.6656" ry="2.66667" transform="matrix(0.990268 -0.139173 0.138814 0.990318 8.10141 17.8342)" fill="white"/>
<ellipse cx="2.6656" cy="2.66667" rx="2.6656" ry="2.66667" transform="matrix(0.990268 -0.139173 0.138814 0.990318 16.015 16.7264)" fill="white"/>
<ellipse cx="2.6656" cy="2.66667" rx="2.6656" ry="2.66667" transform="matrix(0.990268 -0.139173 0.138814 0.990318 23.9286 15.6187)" fill="white"/>
<ellipse cx="2.6656" cy="2.66667" rx="2.6656" ry="2.66667" transform="matrix(0.990268 -0.139173 0.138814 0.990318 9.21106 25.7611)" fill="white"/>
<ellipse cx="2.6656" cy="2.66667" rx="2.6656" ry="2.66667" transform="matrix(0.990268 -0.139173 0.138814 0.990318 17.1246 24.6533)" fill="white"/>
</svg>
